<?xml version="1.0" standalone="no"?><!DOCTYPE svg PUBLIC "-//W3C//DTD SVG 1.1//EN" "http://www.w3.org/Graphics/SVG/1.1/DTD/svg11.dtd"><svg class="icon" width="200px" height="200.00px" viewBox="0 0 1024 1024" version="1.1" xmlns="http://www.w3.org/2000/svg"><path d="M936.7 342.6c-12.8 0-23.2-10.4-23.2-23.2V113.6c0-1.8-1.5-3.3-3.3-3.3H704.4c-12.8 0-23.2-10.4-23.2-23.2s10.4-23.2 23.2-23.2h205.7c27.4 0 49.8 22.3 49.8 49.8v205.7c0 12.8-10.4 23.2-23.2 23.2zM87.3 342.6c-12.8 0-23.2-10.4-23.2-23.2V113.6c0-27.4 22.3-49.8 49.8-49.8h202.7c12.8 0 23.2 10.4 23.2 23.2s-10.4 23.2-23.2 23.2H113.8c-1.8 0-3.3 1.5-3.3 3.3v205.7c0 13-10.4 23.4-23.2 23.4zM316.6 959.7H113.8c-27.4 0-49.8-22.3-49.8-49.8V704.2c0-12.8 10.4-23.2 23.2-23.2s23.2 10.4 23.2 23.2V910c0 1.8 1.5 3.3 3.3 3.3h202.7c12.8 0 23.2 10.4 23.2 23.2s-10.2 23.2-23 23.2zM910.2 959.7H704.4c-12.8 0-23.2-10.4-23.2-23.2s10.4-23.2 23.2-23.2h205.7c1.8 0 3.3-1.5 3.3-3.3V704.2c0-12.8 10.4-23.2 23.2-23.2s23.2 10.4 23.2 23.2V910c0.1 27.4-22.2 49.7-49.6 49.7z" fill="#7D7D7D" /><path d="M408.1 431.1c-5.9 0-11.9-2.3-16.4-6.8L90.8 123.4c-9.1-9.1-9.1-23.8 0-32.8 9.1-9.1 23.8-9.1 32.8 0l300.9 300.9c9.1 9.1 9.1 23.8 0 32.8-4.5 4.6-10.5 6.8-16.4 6.8zM916.8 939.8c-5.9 0-11.9-2.3-16.4-6.8L615 647.7c-9.1-9.1-9.1-23.8 0-32.8 9.1-9.1 23.8-9.1 32.8 0l285.3 285.3c9.1 9.1 9.1 23.8 0 32.8-4.4 4.6-10.4 6.8-16.3 6.8zM107.2 939.8c-5.9 0-11.9-2.3-16.4-6.8-9.1-9.1-9.1-23.8 0-32.8l300.9-300.9c9.1-9.1 23.8-9.1 32.8 0 9.1 9.1 9.1 23.8 0 32.8L123.6 933c-4.5 4.6-10.5 6.8-16.4 6.8zM615.9 431.1c-5.9 0-11.9-2.3-16.4-6.8-9.1-9.1-9.1-23.8 0-32.8L900.4 90.6c9.1-9.1 23.8-9.1 32.8 0 9.1 9.1 9.1 23.8 0 32.8L632.3 424.3c-4.5 4.6-10.5 6.8-16.4 6.8z" fill="#7D7D7D" /></svg>