<?xml version="1.0" standalone="no"?><!DOCTYPE svg PUBLIC "-//W3C//DTD SVG 1.1//EN" "http://www.w3.org/Graphics/SVG/1.1/DTD/svg11.dtd"><svg class="icon" width="200px" height="200.00px" viewBox="0 0 1024 1024" version="1.1" xmlns="http://www.w3.org/2000/svg"><path d="M748.23 539.66L528 666.47 307.78 793.74c-14.9 8.78-34.52 3.6-43.32-11.74-2.93-4.97-4.07-10.37-4.07-15.8h-0.46V257.58c0-17.58 14.44-31.59 32.05-31.59 6.33 0 12.41 1.81 17.61 5.43L528 357.33 748.23 484.6c15.34 8.57 20.31 28.42 11.51 43.32-2.94 4.97-6.54 8.81-11.51 11.74z m-251.81 71.97l172.4-99.95-172.4-99.52-172.86-99.52v398.72l172.86-99.73z" fill="#fff" /></svg>