<?xml version="1.0" standalone="no"?><!DOCTYPE svg PUBLIC "-//W3C//DTD SVG 1.1//EN" "http://www.w3.org/Graphics/SVG/1.1/DTD/svg11.dtd"><svg class="icon" width="200px" height="200.00px" viewBox="0 0 1024 1024" version="1.1" xmlns="http://www.w3.org/2000/svg"><path d="M633.755767 219.58a21.333333 21.333333 0 0 0-30.173334 0L469.335767 353.833333V106.666667a21.333333 21.333333 0 0 0-36.42-15.086667L225.835767 298.666667H53.335767a53.393333 53.393333 0 0 0-53.333334 53.333333v320a53.393333 53.393333 0 0 0 53.333334 53.333333h44.5L6.2491 816.913333a21.333333 21.333333 0 0 0 30.173333 30.173334L158.1691 725.333333h67.666667l207.08 207.086667A21.333333 21.333333 0 0 0 469.335767 917.333333V414.166667l164.42-164.413334a21.333333 21.333333 0 0 0 0-30.173333zM53.335767 682.666667a10.666667 10.666667 0 0 1-10.666667-10.666667V352a10.666667 10.666667 0 0 1 10.666667-10.666667h181.333333a21.333333 21.333333 0 0 0 15.086667-6.246666L426.6691 158.166667v238.333333L140.502433 682.666667z m373.333333 183.166666l-176.913333-176.92A21.333333 21.333333 0 0 0 234.6691 682.666667h-33.833333L426.6691 456.833333z" fill="#FFFFFF" /></svg>